# Tiled2Unity generated file. Do not modify by hand.
# Wavefront file for 'TestMap_mesh_0004.obj'

# Vertices (Count = 128)
v -256 -1312 -0.82
v -288 -1312 -0.82
v -288 -1280 -0.82
v -256 -1280 -0.82
v -288 -1312 -0.82
v -320 -1312 -0.82
v -320 -1280 -0.82
v -288 -1280 -0.82
v -320 -1312 -0.82
v -352 -1312 -0.82
v -352 -1280 -0.82
v -320 -1280 -0.82
v -1344 -1312 -0.82
v -1376 -1312 -0.82
v -1376 -1280 -0.82
v -1344 -1280 -0.82
v -1376 -1312 -0.82
v -1408 -1312 -0.82
v -1408 -1280 -0.82
v -1376 -1280 -0.82
v -1408 -1312 -0.82
v -1440 -1312 -0.82
v -1440 -1280 -0.82
v -1408 -1280 -0.82
v -160 -1344 -0.84
v -192 -1344 -0.84
v -192 -1312 -0.84
v -160 -1312 -0.84
v -192 -1344 -0.84
v -224 -1344 -0.84
v -224 -1312 -0.84
v -192 -1312 -0.84
v -224 -1344 -0.84
v -256 -1344 -0.84
v -256 -1312 -0.84
v -224 -1312 -0.84
v -256 -1344 -0.84
v -288 -1344 -0.84
v -288 -1312 -0.84
v -256 -1312 -0.84
v -288 -1344 -0.84
v -320 -1344 -0.84
v -320 -1312 -0.84
v -288 -1312 -0.84
v -320 -1344 -0.84
v -352 -1344 -0.84
v -352 -1312 -0.84
v -320 -1312 -0.84
v -1248 -1344 -0.84
v -1280 -1344 -0.84
v -1280 -1312 -0.84
v -1248 -1312 -0.84
v -1280 -1344 -0.84
v -1312 -1344 -0.84
v -1312 -1312 -0.84
v -1280 -1312 -0.84
v -1312 -1344 -0.84
v -1344 -1344 -0.84
v -1344 -1312 -0.84
v -1312 -1312 -0.84
v -1344 -1344 -0.84
v -1376 -1344 -0.84
v -1376 -1312 -0.84
v -1344 -1312 -0.84
v -1376 -1344 -0.84
v -1408 -1344 -0.84
v -1408 -1312 -0.84
v -1376 -1312 -0.84
v -1408 -1344 -0.84
v -1440 -1344 -0.84
v -1440 -1312 -0.84
v -1408 -1312 -0.84
v -160 -1376 -0.86
v -192 -1376 -0.86
v -192 -1344 -0.86
v -160 -1344 -0.86
v -192 -1376 -0.86
v -224 -1376 -0.86
v -224 -1344 -0.86
v -192 -1344 -0.86
v -224 -1376 -0.86
v -256 -1376 -0.86
v -256 -1344 -0.86
v -224 -1344 -0.86
v -288 -1376 -0.86
v -320 -1376 -0.86
v -320 -1344 -0.86
v -288 -1344 -0.86
v -320 -1376 -0.86
v -352 -1376 -0.86
v -352 -1344 -0.86
v -320 -1344 -0.86
v -1248 -1376 -0.86
v -1280 -1376 -0.86
v -1280 -1344 -0.86
v -1248 -1344 -0.86
v -1280 -1376 -0.86
v -1312 -1376 -0.86
v -1312 -1344 -0.86
v -1280 -1344 -0.86
v -1312 -1376 -0.86
v -1344 -1376 -0.86
v -1344 -1344 -0.86
v -1312 -1344 -0.86
v -1376 -1376 -0.86
v -1408 -1376 -0.86
v -1408 -1344 -0.86
v -1376 -1344 -0.86
v -1408 -1376 -0.86
v -1440 -1376 -0.86
v -1440 -1344 -0.86
v -1408 -1344 -0.86
v -192 -1408 -0.88
v -224 -1408 -0.88
v -224 -1376 -0.88
v -192 -1376 -0.88
v -224 -1408 -0.88
v -256 -1408 -0.88
v -256 -1376 -0.88
v -224 -1376 -0.88
v -1280 -1408 -0.88
v -1312 -1408 -0.88
v -1312 -1376 -0.88
v -1280 -1376 -0.88
v -1312 -1408 -0.88
v -1344 -1408 -0.88
v -1344 -1376 -0.88
v -1312 -1376 -0.88

# Texture cooridinates (Count = 27)
vt 0 0.3158621
vt 0.125 0.3158621
vt 0.125 0.337931
vt 0 0.337931
vt 0.25 0.3158621
vt 0.25 0.337931
vt 0.375 0.3158621
vt 0.375 0.337931
vt 0.5 0.3158621
vt 0.5 0.337931
vt 0.625 0.3158621
vt 0.625 0.337931
vt 0.75 0.3158621
vt 0.75 0.337931
vt 0 0.2937931
vt 0.125 0.2937931
vt 0.25 0.2937931
vt 0.375 0.2937931
vt 0.5 0.2937931
vt 0.625 0.2937931
vt 0.75 0.2937931
vt 0.125 0.2717242
vt 0.25 0.2717242
vt 0.375 0.2717242
vt 0.5 0.2717242
vt 0.625 0.2717242
vt 0.75 0.2717242

# Normal
vn 0 0 -1

# Mesh description
g TestMap_mesh_0004

# Faces
f 1/1/1 2/2/1 3/3/1 4/4/1
f 5/2/1 6/5/1 7/6/1 8/3/1
f 9/5/1 10/7/1 11/8/1 12/6/1
f 13/7/1 14/9/1 15/10/1 16/8/1
f 17/9/1 18/11/1 19/12/1 20/10/1
f 21/11/1 22/13/1 23/14/1 24/12/1
f 25/7/1 26/9/1 27/10/1 28/8/1
f 29/9/1 30/11/1 31/12/1 32/10/1
f 33/11/1 34/13/1 35/14/1 36/12/1
f 37/15/1 38/16/1 39/2/1 40/1/1
f 41/16/1 42/17/1 43/5/1 44/2/1
f 45/17/1 46/18/1 47/7/1 48/5/1
f 49/1/1 50/2/1 51/3/1 52/4/1
f 53/2/1 54/5/1 55/6/1 56/3/1
f 57/5/1 58/7/1 59/8/1 60/6/1
f 61/18/1 62/19/1 63/9/1 64/7/1
f 65/19/1 66/20/1 67/11/1 68/9/1
f 69/20/1 70/21/1 71/13/1 72/11/1
f 73/18/1 74/19/1 75/9/1 76/7/1
f 77/19/1 78/20/1 79/11/1 80/9/1
f 81/20/1 82/21/1 83/13/1 84/11/1
f 85/22/1 86/23/1 87/17/1 88/16/1
f 89/23/1 90/24/1 91/18/1 92/17/1
f 93/15/1 94/16/1 95/2/1 96/1/1
f 97/16/1 98/17/1 99/5/1 100/2/1
f 101/17/1 102/18/1 103/7/1 104/5/1
f 105/25/1 106/26/1 107/20/1 108/19/1
f 109/26/1 110/27/1 111/21/1 112/20/1
f 113/25/1 114/26/1 115/20/1 116/19/1
f 117/26/1 118/27/1 119/21/1 120/20/1
f 121/22/1 122/23/1 123/17/1 124/16/1
f 125/23/1 126/24/1 127/18/1 128/17/1

