# Tiled2Unity generated file. Do not modify by hand.
# Wavefront file for 'TestMap_mesh_0002.obj'

# Vertices (Count = 772)
v -160 -288 -0.18
v -192 -288 -0.18
v -192 -256 -0.18
v -160 -256 -0.18
v -192 -288 -0.18
v -224 -288 -0.18
v -224 -256 -0.18
v -192 -256 -0.18
v -96 -320 -0.2
v -128 -320 -0.2
v -128 -288 -0.2
v -96 -288 -0.2
v -128 -320 -0.2
v -160 -320 -0.2
v -160 -288 -0.2
v -128 -288 -0.2
v -160 -320 -0.2
v -192 -320 -0.2
v -192 -288 -0.2
v -160 -288 -0.2
v -576 -320 -0.2
v -608 -320 -0.2
v -608 -288 -0.2
v -576 -288 -0.2
v -608 -320 -0.2
v -640 -320 -0.2
v -640 -288 -0.2
v -608 -288 -0.2
v -1376 -320 -0.2
v -1408 -320 -0.2
v -1408 -288 -0.2
v -1376 -288 -0.2
v -96 -352 -0.22
v -128 -352 -0.22
v -128 -320 -0.22
v -96 -320 -0.22
v -512 -352 -0.22
v -544 -352 -0.22
v -544 -320 -0.22
v -512 -320 -0.22
v -1376 -352 -0.22
v -1408 -352 -0.22
v -1408 -320 -0.22
v -1376 -320 -0.22
v -1408 -352 -0.22
v -1440 -352 -0.22
v -1440 -320 -0.22
v -1408 -320 -0.22
v -1440 -352 -0.22
v -1472 -352 -0.22
v -1472 -320 -0.22
v -1440 -320 -0.22
v -96 -384 -0.24
v -128 -384 -0.24
v -128 -352 -0.24
v -96 -352 -0.24
v -512 -384 -0.24
v -544 -384 -0.24
v -544 -352 -0.24
v -512 -352 -0.24
v -544 -384 -0.24
v -576 -384 -0.24
v -576 -352 -0.24
v -544 -352 -0.24
v -992 -384 -0.24
v -1024 -384 -0.24
v -1024 -352 -0.24
v -992 -352 -0.24
v -1024 -384 -0.24
v -1056 -384 -0.24
v -1056 -352 -0.24
v -1024 -352 -0.24
v -1408 -384 -0.24
v -1440 -384 -0.24
v -1440 -352 -0.24
v -1408 -352 -0.24
v -1440 -384 -0.24
v -1472 -384 -0.24
v -1472 -352 -0.24
v -1440 -352 -0.24
v -96 -416 -0.26
v -128 -416 -0.26
v -128 -384 -0.26
v -96 -384 -0.26
v -576 -416 -0.26
v -608 -416 -0.26
v -608 -384 -0.26
v -576 -384 -0.26
v -1024 -416 -0.26
v -1056 -416 -0.26
v -1056 -384 -0.26
v -1024 -384 -0.26
v -1056 -416 -0.26
v -1088 -416 -0.26
v -1088 -384 -0.26
v -1056 -384 -0.26
v -1088 -416 -0.26
v -1120 -416 -0.26
v -1120 -384 -0.26
v -1088 -384 -0.26
v -1440 -416 -0.26
v -1472 -416 -0.26
v -1472 -384 -0.26
v -1440 -384 -0.26
v -1472 -416 -0.26
v -1504 -416 -0.26
v -1504 -384 -0.26
v -1472 -384 -0.26
v -96 -448 -0.28
v -128 -448 -0.28
v -128 -416 -0.28
v -96 -416 -0.28
v -1088 -448 -0.28
v -1120 -448 -0.28
v -1120 -416 -0.28
v -1088 -416 -0.28
v -1120 -448 -0.28
v -1152 -448 -0.28
v -1152 -416 -0.28
v -1120 -416 -0.28
v -1152 -448 -0.28
v -1184 -448 -0.28
v -1184 -416 -0.28
v -1152 -416 -0.28
v -1440 -448 -0.28
v -1472 -448 -0.28
v -1472 -416 -0.28
v -1440 -416 -0.28
v -1472 -448 -0.28
v -1504 -448 -0.28
v -1504 -416 -0.28
v -1472 -416 -0.28
v -96 -480 -0.3
v -128 -480 -0.3
v -128 -448 -0.3
v -96 -448 -0.3
v -1120 -480 -0.3
v -1152 -480 -0.3
v -1152 -448 -0.3
v -1120 -448 -0.3
v -1184 -480 -0.3
v -1216 -480 -0.3
v -1216 -448 -0.3
v -1184 -448 -0.3
v -1216 -480 -0.3
v -1248 -480 -0.3
v -1248 -448 -0.3
v -1216 -448 -0.3
v -1248 -480 -0.3
v -1280 -480 -0.3
v -1280 -448 -0.3
v -1248 -448 -0.3
v -1440 -480 -0.3
v -1472 -480 -0.3
v -1472 -448 -0.3
v -1440 -448 -0.3
v -1472 -480 -0.3
v -1504 -480 -0.3
v -1504 -448 -0.3
v -1472 -448 -0.3
v -1504 -480 -0.3
v -1536 -480 -0.3
v -1536 -448 -0.3
v -1504 -448 -0.3
v -1408 -512 -0.32
v -1440 -512 -0.32
v -1440 -480 -0.32
v -1408 -480 -0.32
v -1440 -512 -0.32
v -1472 -512 -0.32
v -1472 -480 -0.32
v -1440 -480 -0.32
v -1504 -512 -0.32
v -1536 -512 -0.32
v -1536 -480 -0.32
v -1504 -480 -0.32
v -1504 -544 -0.34
v -1536 -544 -0.34
v -1536 -512 -0.34
v -1504 -512 -0.34
v -1536 -544 -0.34
v -1568 -544 -0.34
v -1568 -512 -0.34
v -1536 -512 -0.34
v -96 -576 -0.36
v -128 -576 -0.36
v -128 -544 -0.36
v -96 -544 -0.36
v -1536 -576 -0.36
v -1568 -576 -0.36
v -1568 -544 -0.36
v -1536 -544 -0.36
v -64 -608 -0.38
v -96 -608 -0.38
v -96 -576 -0.38
v -64 -576 -0.38
v -96 -608 -0.38
v -128 -608 -0.38
v -128 -576 -0.38
v -96 -576 -0.38
v -1536 -608 -0.38
v -1568 -608 -0.38
v -1568 -576 -0.38
v -1536 -576 -0.38
v -32 -640 -0.4
v -64 -640 -0.4
v -64 -608 -0.4
v -32 -608 -0.4
v -64 -640 -0.4
v -96 -640 -0.4
v -96 -608 -0.4
v -64 -608 -0.4
v -768 -640 -0.4
v -800 -640 -0.4
v -800 -608 -0.4
v -768 -608 -0.4
v -800 -640 -0.4
v -832 -640 -0.4
v -832 -608 -0.4
v -800 -608 -0.4
v -32 -672 -0.42
v -64 -672 -0.42
v -64 -640 -0.42
v -32 -640 -0.42
v -800 -672 -0.42
v -832 -672 -0.42
v -832 -640 -0.42
v -800 -640 -0.42
v -832 -672 -0.42
v -864 -672 -0.42
v -864 -640 -0.42
v -832 -640 -0.42
v -1504 -672 -0.42
v -1536 -672 -0.42
v -1536 -640 -0.42
v -1504 -640 -0.42
v -320 -704 -0.44
v -352 -704 -0.44
v -352 -672 -0.44
v -320 -672 -0.44
v -1120 -704 -0.44
v -1152 -704 -0.44
v -1152 -672 -0.44
v -1120 -672 -0.44
v -1248 -704 -0.44
v -1280 -704 -0.44
v -1280 -672 -0.44
v -1248 -672 -0.44
v -1472 -704 -0.44
v -1504 -704 -0.44
v -1504 -672 -0.44
v -1472 -672 -0.44
v -1504 -704 -0.44
v -1536 -704 -0.44
v -1536 -672 -0.44
v -1504 -672 -0.44
v -448 -736 -0.46
v -480 -736 -0.46
v -480 -704 -0.46
v -448 -704 -0.46
v -864 -736 -0.46
v -896 -736 -0.46
v -896 -704 -0.46
v -864 -704 -0.46
v -1440 -736 -0.46
v -1472 -736 -0.46
v -1472 -704 -0.46
v -1440 -704 -0.46
v -1472 -736 -0.46
v -1504 -736 -0.46
v -1504 -704 -0.46
v -1472 -704 -0.46
v -704 -768 -0.48
v -736 -768 -0.48
v -736 -736 -0.48
v -704 -736 -0.48
v -1440 -768 -0.48
v -1472 -768 -0.48
v -1472 -736 -0.48
v -1440 -736 -0.48
v -32 -800 -0.5
v -64 -800 -0.5
v -64 -768 -0.5
v -32 -768 -0.5
v -64 -800 -0.5
v -96 -800 -0.5
v -96 -768 -0.5
v -64 -768 -0.5
v -960 -800 -0.5
v -992 -800 -0.5
v -992 -768 -0.5
v -960 -768 -0.5
v -1184 -800 -0.5
v -1216 -800 -0.5
v -1216 -768 -0.5
v -1184 -768 -0.5
v -1440 -800 -0.5
v -1472 -800 -0.5
v -1472 -768 -0.5
v -1440 -768 -0.5
v -64 -832 -0.52
v -96 -832 -0.52
v -96 -800 -0.52
v -64 -800 -0.52
v -96 -832 -0.52
v -128 -832 -0.52
v -128 -800 -0.52
v -96 -800 -0.52
v -128 -832 -0.52
v -160 -832 -0.52
v -160 -800 -0.52
v -128 -800 -0.52
v -1440 -832 -0.52
v -1472 -832 -0.52
v -1472 -800 -0.52
v -1440 -800 -0.52
v -544 -864 -0.54
v -576 -864 -0.54
v -576 -832 -0.54
v -544 -832 -0.54
v -576 -864 -0.54
v -608 -864 -0.54
v -608 -832 -0.54
v -576 -832 -0.54
v -992 -864 -0.54
v -1024 -864 -0.54
v -1024 -832 -0.54
v -992 -832 -0.54
v -1024 -864 -0.54
v -1056 -864 -0.54
v -1056 -832 -0.54
v -1024 -832 -0.54
v -1440 -864 -0.54
v -1472 -864 -0.54
v -1472 -832 -0.54
v -1440 -832 -0.54
v -1472 -864 -0.54
v -1504 -864 -0.54
v -1504 -832 -0.54
v -1472 -832 -0.54
v -544 -896 -0.56
v -576 -896 -0.56
v -576 -864 -0.56
v -544 -864 -0.56
v -576 -896 -0.56
v -608 -896 -0.56
v -608 -864 -0.56
v -576 -864 -0.56
v -704 -896 -0.56
v -736 -896 -0.56
v -736 -864 -0.56
v -704 -864 -0.56
v -736 -896 -0.56
v -768 -896 -0.56
v -768 -864 -0.56
v -736 -864 -0.56
v -768 -896 -0.56
v -800 -896 -0.56
v -800 -864 -0.56
v -768 -864 -0.56
v -800 -896 -0.56
v -832 -896 -0.56
v -832 -864 -0.56
v -800 -864 -0.56
v -832 -896 -0.56
v -864 -896 -0.56
v -864 -864 -0.56
v -832 -864 -0.56
v -864 -896 -0.56
v -896 -896 -0.56
v -896 -864 -0.56
v -864 -864 -0.56
v -992 -896 -0.56
v -1024 -896 -0.56
v -1024 -864 -0.56
v -992 -864 -0.56
v -1024 -896 -0.56
v -1056 -896 -0.56
v -1056 -864 -0.56
v -1024 -864 -0.56
v -1280 -896 -0.56
v -1312 -896 -0.56
v -1312 -864 -0.56
v -1280 -864 -0.56
v -1280 -928 -0.58
v -1312 -928 -0.58
v -1312 -896 -0.58
v -1280 -896 -0.58
v -1312 -928 -0.58
v -1344 -928 -0.58
v -1344 -896 -0.58
v -1312 -896 -0.58
v -1312 -960 -0.6
v -1344 -960 -0.6
v -1344 -928 -0.6
v -1312 -928 -0.6
v -1344 -960 -0.6
v -1376 -960 -0.6
v -1376 -928 -0.6
v -1344 -928 -0.6
v -128 -992 -0.62
v -160 -992 -0.62
v -160 -960 -0.62
v -128 -960 -0.62
v -160 -992 -0.62
v -192 -992 -0.62
v -192 -960 -0.62
v -160 -960 -0.62
v -160 -1024 -0.64
v -192 -1024 -0.64
v -192 -992 -0.64
v -160 -992 -0.64
v -192 -1024 -0.64
v -224 -1024 -0.64
v -224 -992 -0.64
v -192 -992 -0.64
v -224 -1024 -0.64
v -256 -1024 -0.64
v -256 -992 -0.64
v -224 -992 -0.64
v -288 -1024 -0.64
v -320 -1024 -0.64
v -320 -992 -0.64
v -288 -992 -0.64
v -512 -1024 -0.64
v -544 -1024 -0.64
v -544 -992 -0.64
v -512 -992 -0.64
v -992 -1024 -0.64
v -1024 -1024 -0.64
v -1024 -992 -0.64
v -992 -992 -0.64
v -1024 -1024 -0.64
v -1056 -1024 -0.64
v -1056 -992 -0.64
v -1024 -992 -0.64
v -1120 -1024 -0.64
v -1152 -1024 -0.64
v -1152 -992 -0.64
v -1120 -992 -0.64
v -1152 -1024 -0.64
v -1184 -1024 -0.64
v -1184 -992 -0.64
v -1152 -992 -0.64
v -288 -1056 -0.66
v -320 -1056 -0.66
v -320 -1024 -0.66
v -288 -1024 -0.66
v -320 -1056 -0.66
v -352 -1056 -0.66
v -352 -1024 -0.66
v -320 -1024 -0.66
v -672 -1056 -0.66
v -704 -1056 -0.66
v -704 -1024 -0.66
v -672 -1024 -0.66
v -1024 -1056 -0.66
v -1056 -1056 -0.66
v -1056 -1024 -0.66
v -1024 -1024 -0.66
v -1056 -1056 -0.66
v -1088 -1056 -0.66
v -1088 -1024 -0.66
v -1056 -1024 -0.66
v -1088 -1056 -0.66
v -1120 -1056 -0.66
v -1120 -1024 -0.66
v -1088 -1024 -0.66
v -1312 -1056 -0.66
v -1344 -1056 -0.66
v -1344 -1024 -0.66
v -1312 -1024 -0.66
v -1568 -1056 -0.66
v -1600 -1056 -0.66
v -1600 -1024 -0.66
v -1568 -1024 -0.66
v -96 -1088 -0.68
v -128 -1088 -0.68
v -128 -1056 -0.68
v -96 -1056 -0.68
v -192 -1088 -0.68
v -224 -1088 -0.68
v -224 -1056 -0.68
v -192 -1056 -0.68
v -288 -1088 -0.68
v -320 -1088 -0.68
v -320 -1056 -0.68
v -288 -1056 -0.68
v -320 -1088 -0.68
v -352 -1088 -0.68
v -352 -1056 -0.68
v -320 -1056 -0.68
v -480 -1088 -0.68
v -512 -1088 -0.68
v -512 -1056 -0.68
v -480 -1056 -0.68
v -512 -1088 -0.68
v -544 -1088 -0.68
v -544 -1056 -0.68
v -512 -1056 -0.68
v -544 -1088 -0.68
v -576 -1088 -0.68
v -576 -1056 -0.68
v -544 -1056 -0.68
v -672 -1088 -0.68
v -704 -1088 -0.68
v -704 -1056 -0.68
v -672 -1056 -0.68
v -1312 -1088 -0.68
v -1344 -1088 -0.68
v -1344 -1056 -0.68
v -1312 -1056 -0.68
v -1408 -1088 -0.68
v -1440 -1088 -0.68
v -1440 -1056 -0.68
v -1408 -1056 -0.68
v -1440 -1088 -0.68
v -1472 -1088 -0.68
v -1472 -1056 -0.68
v -1440 -1056 -0.68
v -1568 -1088 -0.68
v -1600 -1088 -0.68
v -1600 -1056 -0.68
v -1568 -1056 -0.68
v -256 -1120 -0.7
v -288 -1120 -0.7
v -288 -1088 -0.7
v -256 -1088 -0.7
v -288 -1120 -0.7
v -320 -1120 -0.7
v -320 -1088 -0.7
v -288 -1088 -0.7
v -1312 -1120 -0.7
v -1344 -1120 -0.7
v -1344 -1088 -0.7
v -1312 -1088 -0.7
v -1344 -1120 -0.7
v -1376 -1120 -0.7
v -1376 -1088 -0.7
v -1344 -1088 -0.7
v -1536 -1120 -0.7
v -1568 -1120 -0.7
v -1568 -1088 -0.7
v -1536 -1088 -0.7
v -1568 -1120 -0.7
v -1600 -1120 -0.7
v -1600 -1088 -0.7
v -1568 -1088 -0.7
v -32 -1152 -0.72
v -64 -1152 -0.72
v -64 -1120 -0.72
v -32 -1120 -0.72
v -128 -1152 -0.72
v -160 -1152 -0.72
v -160 -1120 -0.72
v -128 -1120 -0.72
v -800 -1152 -0.72
v -832 -1152 -0.72
v -832 -1120 -0.72
v -800 -1120 -0.72
v -1408 -1152 -0.72
v -1440 -1152 -0.72
v -1440 -1120 -0.72
v -1408 -1120 -0.72
v 0 -1184 -0.74
v -32 -1184 -0.74
v -32 -1152 -0.74
v 0 -1152 -0.74
v -32 -1184 -0.74
v -64 -1184 -0.74
v -64 -1152 -0.74
v -32 -1152 -0.74
v -128 -1184 -0.74
v -160 -1184 -0.74
v -160 -1152 -0.74
v -128 -1152 -0.74
v -160 -1184 -0.74
v -192 -1184 -0.74
v -192 -1152 -0.74
v -160 -1152 -0.74
v -800 -1184 -0.74
v -832 -1184 -0.74
v -832 -1152 -0.74
v -800 -1152 -0.74
v -832 -1184 -0.74
v -864 -1184 -0.74
v -864 -1152 -0.74
v -832 -1152 -0.74
v -1376 -1184 -0.74
v -1408 -1184 -0.74
v -1408 -1152 -0.74
v -1376 -1152 -0.74
v -1440 -1184 -0.74
v -1472 -1184 -0.74
v -1472 -1152 -0.74
v -1440 -1152 -0.74
v 0 -1216 -0.76
v -32 -1216 -0.76
v -32 -1184 -0.76
v 0 -1184 -0.76
v -160 -1216 -0.76
v -192 -1216 -0.76
v -192 -1184 -0.76
v -160 -1184 -0.76
v -192 -1216 -0.76
v -224 -1216 -0.76
v -224 -1184 -0.76
v -192 -1184 -0.76
v -832 -1216 -0.76
v -864 -1216 -0.76
v -864 -1184 -0.76
v -832 -1184 -0.76
v -1440 -1216 -0.76
v -1472 -1216 -0.76
v -1472 -1184 -0.76
v -1440 -1184 -0.76
v 0 -1248 -0.78
v -32 -1248 -0.78
v -32 -1216 -0.78
v 0 -1216 -0.78
v -1536 -1248 -0.78
v -1568 -1248 -0.78
v -1568 -1216 -0.78
v -1536 -1216 -0.78
v -736 -1280 -0.8
v -768 -1280 -0.8
v -768 -1248 -0.8
v -736 -1248 -0.8
v -896 -1280 -0.8
v -928 -1280 -0.8
v -928 -1248 -0.8
v -896 -1248 -0.8
v -1248 -1312 -0.82
v -1280 -1312 -0.82
v -1280 -1280 -0.82
v -1248 -1280 -0.82
v -1152 -1344 -0.84
v -1184 -1344 -0.84
v -1184 -1312 -0.84
v -1152 -1312 -0.84
v -64 -1408 -0.88
v -96 -1408 -0.88
v -96 -1376 -0.88
v -64 -1376 -0.88
v -96 -1408 -0.88
v -128 -1408 -0.88
v -128 -1376 -0.88
v -96 -1376 -0.88
v -416 -1408 -0.88
v -448 -1408 -0.88
v -448 -1376 -0.88
v -416 -1376 -0.88
v -448 -1408 -0.88
v -480 -1408 -0.88
v -480 -1376 -0.88
v -448 -1376 -0.88
v -480 -1408 -0.88
v -512 -1408 -0.88
v -512 -1376 -0.88
v -480 -1376 -0.88
v -832 -1408 -0.88
v -864 -1408 -0.88
v -864 -1376 -0.88
v -832 -1376 -0.88
v -1024 -1408 -0.88
v -1056 -1408 -0.88
v -1056 -1376 -0.88
v -1024 -1376 -0.88
v -96 -1440 -0.9
v -128 -1440 -0.9
v -128 -1408 -0.9
v -96 -1408 -0.9
v -128 -1440 -0.9
v -160 -1440 -0.9
v -160 -1408 -0.9
v -128 -1408 -0.9
v -192 -1440 -0.9
v -224 -1440 -0.9
v -224 -1408 -0.9
v -192 -1408 -0.9
v -416 -1440 -0.9
v -448 -1440 -0.9
v -448 -1408 -0.9
v -416 -1408 -0.9
v -512 -1440 -0.9
v -544 -1440 -0.9
v -544 -1408 -0.9
v -512 -1408 -0.9
v -800 -1440 -0.9
v -832 -1440 -0.9
v -832 -1408 -0.9
v -800 -1408 -0.9
v -832 -1440 -0.9
v -864 -1440 -0.9
v -864 -1408 -0.9
v -832 -1408 -0.9
v -1024 -1440 -0.9
v -1056 -1440 -0.9
v -1056 -1408 -0.9
v -1024 -1408 -0.9
v -1280 -1440 -0.9
v -1312 -1440 -0.9
v -1312 -1408 -0.9
v -1280 -1408 -0.9
v -1376 -1440 -0.9
v -1408 -1440 -0.9
v -1408 -1408 -0.9
v -1376 -1408 -0.9
v -1504 -1440 -0.9
v -1536 -1440 -0.9
v -1536 -1408 -0.9
v -1504 -1408 -0.9
v -160 -1472 -0.92
v -192 -1472 -0.92
v -192 -1440 -0.92
v -160 -1440 -0.92
v -224 -1472 -0.92
v -256 -1472 -0.92
v -256 -1440 -0.92
v -224 -1440 -0.92
v -288 -1472 -0.92
v -320 -1472 -0.92
v -320 -1440 -0.92
v -288 -1440 -0.92
v -448 -1472 -0.92
v -480 -1472 -0.92
v -480 -1440 -0.92
v -448 -1440 -0.92
v -768 -1472 -0.92
v -800 -1472 -0.92
v -800 -1440 -0.92
v -768 -1440 -0.92
v -800 -1472 -0.92
v -832 -1472 -0.92
v -832 -1440 -0.92
v -800 -1440 -0.92
v -1152 -1472 -0.92
v -1184 -1472 -0.92
v -1184 -1440 -0.92
v -1152 -1440 -0.92
v -1184 -1472 -0.92
v -1216 -1472 -0.92
v -1216 -1440 -0.92
v -1184 -1440 -0.92
v -1280 -1472 -0.92
v -1312 -1472 -0.92
v -1312 -1440 -0.92
v -1280 -1440 -0.92
v -1312 -1472 -0.92
v -1344 -1472 -0.92
v -1344 -1440 -0.92
v -1312 -1440 -0.92
v -1376 -1472 -0.92
v -1408 -1472 -0.92
v -1408 -1440 -0.92
v -1376 -1440 -0.92
v -1504 -1472 -0.92
v -1536 -1472 -0.92
v -1536 -1440 -0.92
v -1504 -1440 -0.92
v -800 -1504 -0.94
v -832 -1504 -0.94
v -832 -1472 -0.94
v -800 -1472 -0.94
v -1344 -1504 -0.94
v -1376 -1504 -0.94
v -1376 -1472 -0.94
v -1344 -1472 -0.94
v -1504 -1504 -0.94
v -1536 -1504 -0.94
v -1536 -1472 -0.94
v -1504 -1472 -0.94

# Texture cooridinates (Count = 57)
vt 0.875 0.2275862
vt 1 0.2275862
vt 1 0.2496552
vt 0.875 0.2496552
vt 0.75 0.1393104
vt 0.875 0.1393104
vt 0.875 0.1613793
vt 0.75 0.1613793
vt 0.875 0.1834483
vt 0.75 0.1834483
vt 0.625 0.2496552
vt 0.75 0.2496552
vt 0.75 0.2717242
vt 0.625 0.2717242
vt 0.5 0.09517241
vt 0.625 0.09517241
vt 0.625 0.1172414
vt 0.5 0.1172414
vt 0.75 0.1172414
vt 0.625 0.1393104
vt 0.75 0.09517241
vt 1 0.1393104
vt 1 0.1613793
vt 0 0.6468965
vt 0.125 0.6468965
vt 0.125 0.6689655
vt 0 0.6689655
vt 0.25 0.6468965
vt 0.25 0.6689655
vt 0 0.6248276
vt 0.125 0.6248276
vt 0.25 0.6248276
vt 0.5 0.8234483
vt 0.625 0.8234483
vt 0.625 0.8455173
vt 0.5 0.8455173
vt 0.75 0.8234483
vt 0.75 0.8455173
vt 0.875 0.8234483
vt 0.875 0.8455173
vt 0.75 0.2275862
vt 0.875 0.977931
vt 1 0.977931
vt 1 1
vt 0.875 1
vt 0.875 0.955862
vt 1 0.955862
vt 0.875 0.3158621
vt 1 0.3158621
vt 1 0.337931
vt 0.875 0.337931
vt 0.75 0.2937931
vt 0.875 0.2937931
vt 0.75 0.3158621
vt 1 0.2717242
vt 0.875 0.2717242
vt 1 0.2937931

# Normal
vn 0 0 -1

# Mesh description
g TestMap_mesh_0002

# Faces
f 1/1/1 2/2/1 3/3/1 4/4/1
f 5/1/1 6/2/1 7/3/1 8/4/1
f 9/1/1 10/2/1 11/3/1 12/4/1
f 13/1/1 14/2/1 15/3/1 16/4/1
f 17/1/1 18/2/1 19/3/1 20/4/1
f 21/5/1 22/6/1 23/7/1 24/8/1
f 25/8/1 26/7/1 27/9/1 28/10/1
f 29/1/1 30/2/1 31/3/1 32/4/1
f 33/1/1 34/2/1 35/3/1 36/4/1
f 37/11/1 38/12/1 39/13/1 40/14/1
f 41/1/1 42/2/1 43/3/1 44/4/1
f 45/1/1 46/2/1 47/3/1 48/4/1
f 49/1/1 50/2/1 51/3/1 52/4/1
f 53/1/1 54/2/1 55/3/1 56/4/1
f 57/11/1 58/12/1 59/13/1 60/14/1
f 61/11/1 62/12/1 63/13/1 64/14/1
f 65/1/1 66/2/1 67/3/1 68/4/1
f 69/1/1 70/2/1 71/3/1 72/4/1
f 73/11/1 74/12/1 75/13/1 76/14/1
f 77/11/1 78/12/1 79/13/1 80/14/1
f 81/1/1 82/2/1 83/3/1 84/4/1
f 85/11/1 86/12/1 87/13/1 88/14/1
f 89/1/1 90/2/1 91/3/1 92/4/1
f 93/11/1 94/12/1 95/13/1 96/14/1
f 97/11/1 98/12/1 99/13/1 100/14/1
f 101/11/1 102/12/1 103/13/1 104/14/1
f 105/11/1 106/12/1 107/13/1 108/14/1
f 109/1/1 110/2/1 111/3/1 112/4/1
f 113/11/1 114/12/1 115/13/1 116/14/1
f 117/11/1 118/12/1 119/13/1 120/14/1
f 121/1/1 122/2/1 123/3/1 124/4/1
f 125/1/1 126/2/1 127/3/1 128/4/1
f 129/11/1 130/12/1 131/13/1 132/14/1
f 133/1/1 134/2/1 135/3/1 136/4/1
f 137/11/1 138/12/1 139/13/1 140/14/1
f 141/1/1 142/2/1 143/3/1 144/4/1
f 145/1/1 146/2/1 147/3/1 148/4/1
f 149/1/1 150/2/1 151/3/1 152/4/1
f 153/1/1 154/2/1 155/3/1 156/4/1
f 157/11/1 158/12/1 159/13/1 160/14/1
f 161/11/1 162/12/1 163/13/1 164/14/1
f 165/1/1 166/2/1 167/3/1 168/4/1
f 169/1/1 170/2/1 171/3/1 172/4/1
f 173/11/1 174/12/1 175/13/1 176/14/1
f 177/11/1 178/12/1 179/13/1 180/14/1
f 181/11/1 182/12/1 183/13/1 184/14/1
f 185/1/1 186/2/1 187/3/1 188/4/1
f 189/11/1 190/12/1 191/13/1 192/14/1
f 193/1/1 194/2/1 195/3/1 196/4/1
f 197/1/1 198/2/1 199/3/1 200/4/1
f 201/11/1 202/12/1 203/13/1 204/14/1
f 205/1/1 206/2/1 207/3/1 208/4/1
f 209/1/1 210/2/1 211/3/1 212/4/1
f 213/1/1 214/2/1 215/3/1 216/4/1
f 217/1/1 218/2/1 219/3/1 220/4/1
f 221/1/1 222/2/1 223/3/1 224/4/1
f 225/1/1 226/2/1 227/3/1 228/4/1
f 229/1/1 230/2/1 231/3/1 232/4/1
f 233/1/1 234/2/1 235/3/1 236/4/1
f 237/15/1 238/16/1 239/17/1 240/18/1
f 241/15/1 242/16/1 243/17/1 244/18/1
f 245/17/1 246/19/1 247/5/1 248/20/1
f 249/1/1 250/2/1 251/3/1 252/4/1
f 253/1/1 254/2/1 255/3/1 256/4/1
f 257/16/1 258/21/1 259/19/1 260/17/1
f 261/15/1 262/16/1 263/17/1 264/18/1
f 265/1/1 266/2/1 267/3/1 268/4/1
f 269/1/1 270/2/1 271/3/1 272/4/1
f 273/6/1 274/22/1 275/23/1 276/7/1
f 277/1/1 278/2/1 279/3/1 280/4/1
f 281/1/1 282/2/1 283/3/1 284/4/1
f 285/1/1 286/2/1 287/3/1 288/4/1
f 289/16/1 290/21/1 291/19/1 292/17/1
f 293/15/1 294/16/1 295/17/1 296/18/1
f 297/11/1 298/12/1 299/13/1 300/14/1
f 301/1/1 302/2/1 303/3/1 304/4/1
f 305/1/1 306/2/1 307/3/1 308/4/1
f 309/1/1 310/2/1 311/3/1 312/4/1
f 313/11/1 314/12/1 315/13/1 316/14/1
f 317/24/1 318/25/1 319/26/1 320/27/1
f 321/25/1 322/28/1 323/29/1 324/26/1
f 325/24/1 326/25/1 327/26/1 328/27/1
f 329/25/1 330/28/1 331/29/1 332/26/1
f 333/11/1 334/12/1 335/13/1 336/14/1
f 337/11/1 338/12/1 339/13/1 340/14/1
f 341/30/1 342/31/1 343/25/1 344/24/1
f 345/31/1 346/32/1 347/28/1 348/25/1
f 349/33/1 350/34/1 351/35/1 352/36/1
f 353/34/1 354/37/1 355/38/1 356/35/1
f 357/34/1 358/37/1 359/38/1 360/35/1
f 361/34/1 362/37/1 363/38/1 364/35/1
f 365/34/1 366/37/1 367/38/1 368/35/1
f 369/37/1 370/39/1 371/40/1 372/38/1
f 373/30/1 374/31/1 375/25/1 376/24/1
f 377/31/1 378/32/1 379/28/1 380/25/1
f 381/1/1 382/2/1 383/3/1 384/4/1
f 385/1/1 386/2/1 387/3/1 388/4/1
f 389/1/1 390/2/1 391/3/1 392/4/1
f 393/1/1 394/2/1 395/3/1 396/4/1
f 397/1/1 398/2/1 399/3/1 400/4/1
f 401/41/1 402/1/1 403/4/1 404/12/1
f 405/41/1 406/1/1 407/4/1 408/12/1
f 409/41/1 410/1/1 411/4/1 412/12/1
f 413/41/1 414/1/1 415/4/1 416/12/1
f 417/41/1 418/1/1 419/4/1 420/12/1
f 421/1/1 422/2/1 423/3/1 424/4/1
f 425/5/1 426/6/1 427/7/1 428/8/1
f 429/1/1 430/2/1 431/3/1 432/4/1
f 433/1/1 434/2/1 435/3/1 436/4/1
f 437/1/1 438/2/1 439/3/1 440/4/1
f 441/1/1 442/2/1 443/3/1 444/4/1
f 445/1/1 446/2/1 447/3/1 448/4/1
f 449/41/1 450/1/1 451/4/1 452/12/1
f 453/41/1 454/1/1 455/4/1 456/12/1
f 457/1/1 458/2/1 459/3/1 460/4/1
f 461/1/1 462/2/1 463/3/1 464/4/1
f 465/1/1 466/2/1 467/3/1 468/4/1
f 469/1/1 470/2/1 471/3/1 472/4/1
f 473/1/1 474/2/1 475/3/1 476/4/1
f 477/42/1 478/43/1 479/44/1 480/45/1
f 481/46/1 482/47/1 483/43/1 484/42/1
f 485/41/1 486/1/1 487/4/1 488/12/1
f 489/41/1 490/1/1 491/4/1 492/12/1
f 493/41/1 494/1/1 495/4/1 496/12/1
f 497/41/1 498/1/1 499/4/1 500/12/1
f 501/41/1 502/1/1 503/4/1 504/12/1
f 505/41/1 506/1/1 507/4/1 508/12/1
f 509/1/1 510/2/1 511/3/1 512/4/1
f 513/48/1 514/49/1 515/50/1 516/51/1
f 517/52/1 518/53/1 519/48/1 520/54/1
f 521/1/1 522/2/1 523/3/1 524/4/1
f 525/41/1 526/1/1 527/4/1 528/12/1
f 529/41/1 530/1/1 531/4/1 532/12/1
f 533/1/1 534/2/1 535/3/1 536/4/1
f 537/1/1 538/2/1 539/3/1 540/4/1
f 541/1/1 542/2/1 543/3/1 544/4/1
f 545/1/1 546/2/1 547/3/1 548/4/1
f 549/41/1 550/1/1 551/4/1 552/12/1
f 553/1/1 554/2/1 555/3/1 556/4/1
f 557/5/1 558/6/1 559/7/1 560/8/1
f 561/11/1 562/12/1 563/13/1 564/14/1
f 565/41/1 566/1/1 567/4/1 568/12/1
f 569/41/1 570/1/1 571/4/1 572/12/1
f 573/1/1 574/2/1 575/3/1 576/4/1
f 577/1/1 578/2/1 579/3/1 580/4/1
f 581/11/1 582/12/1 583/13/1 584/14/1
f 585/11/1 586/12/1 587/13/1 588/14/1
f 589/11/1 590/12/1 591/13/1 592/14/1
f 593/11/1 594/12/1 595/13/1 596/14/1
f 597/41/1 598/1/1 599/4/1 600/12/1
f 601/1/1 602/2/1 603/3/1 604/4/1
f 605/1/1 606/2/1 607/3/1 608/4/1
f 609/11/1 610/12/1 611/13/1 612/14/1
f 613/11/1 614/12/1 615/13/1 616/14/1
f 617/41/1 618/1/1 619/4/1 620/12/1
f 621/11/1 622/12/1 623/13/1 624/14/1
f 625/4/1 626/3/1 627/55/1 628/56/1
f 629/11/1 630/12/1 631/13/1 632/14/1
f 633/1/1 634/2/1 635/3/1 636/4/1
f 637/1/1 638/2/1 639/3/1 640/4/1
f 641/56/1 642/55/1 643/57/1 644/53/1
f 645/56/1 646/55/1 647/57/1 648/53/1
f 649/41/1 650/1/1 651/4/1 652/12/1
f 653/41/1 654/1/1 655/4/1 656/12/1
f 657/41/1 658/1/1 659/4/1 660/12/1
f 661/4/1 662/3/1 663/55/1 664/56/1
f 665/41/1 666/1/1 667/4/1 668/12/1
f 669/56/1 670/55/1 671/57/1 672/53/1
f 673/56/1 674/55/1 675/57/1 676/53/1
f 677/8/1 678/7/1 679/9/1 680/10/1
f 681/5/1 682/6/1 683/7/1 684/8/1
f 685/11/1 686/12/1 687/13/1 688/14/1
f 689/1/1 690/2/1 691/3/1 692/4/1
f 693/1/1 694/2/1 695/3/1 696/4/1
f 697/41/1 698/1/1 699/4/1 700/12/1
f 701/1/1 702/2/1 703/3/1 704/4/1
f 705/8/1 706/7/1 707/9/1 708/10/1
f 709/11/1 710/12/1 711/13/1 712/14/1
f 713/56/1 714/55/1 715/57/1 716/53/1
f 717/8/1 718/7/1 719/9/1 720/10/1
f 721/5/1 722/6/1 723/7/1 724/8/1
f 725/11/1 726/12/1 727/13/1 728/14/1
f 729/11/1 730/12/1 731/13/1 732/14/1
f 733/4/1 734/3/1 735/55/1 736/56/1
f 737/1/1 738/2/1 739/3/1 740/4/1
f 741/1/1 742/2/1 743/3/1 744/4/1
f 745/8/1 746/7/1 747/9/1 748/10/1
f 749/8/1 750/7/1 751/9/1 752/10/1
f 753/5/1 754/6/1 755/7/1 756/8/1
f 757/11/1 758/12/1 759/13/1 760/14/1
f 761/1/1 762/2/1 763/3/1 764/4/1
f 765/1/1 766/2/1 767/3/1 768/4/1
f 769/11/1 770/12/1 771/13/1 772/14/1

