# Tiled2Unity generated file. Do not modify by hand.
# Wavefront file for 'TestMap_mesh_0003.obj'

# Vertices (Count = 492)
v -256 -928 -0.58
v -288 -928 -0.58
v -288 -896 -0.58
v -256 -896 -0.58
v -288 -928 -0.58
v -320 -928 -0.58
v -320 -896 -0.58
v -288 -896 -0.58
v -320 -928 -0.58
v -352 -928 -0.58
v -352 -896 -0.58
v -320 -896 -0.58
v -352 -928 -0.58
v -384 -928 -0.58
v -384 -896 -0.58
v -352 -896 -0.58
v -384 -928 -0.58
v -416 -928 -0.58
v -416 -896 -0.58
v -384 -896 -0.58
v -416 -928 -0.58
v -448 -928 -0.58
v -448 -896 -0.58
v -416 -896 -0.58
v -448 -928 -0.58
v -480 -928 -0.58
v -480 -896 -0.58
v -448 -896 -0.58
v -448 -960 -0.6
v -480 -960 -0.6
v -480 -928 -0.6
v -448 -928 -0.6
v 0 -992 -0.62
v -32 -992 -0.62
v -32 -960 -0.62
v 0 -960 -0.62
v 0 -1024 -0.64
v -32 -1024 -0.64
v -32 -992 -0.64
v 0 -992 -0.64
v -256 -1024 -0.64
v -288 -1024 -0.64
v -288 -992 -0.64
v -256 -992 -0.64
v -544 -1024 -0.64
v -576 -1024 -0.64
v -576 -992 -0.64
v -544 -992 -0.64
v -576 -1024 -0.64
v -608 -1024 -0.64
v -608 -992 -0.64
v -576 -992 -0.64
v 0 -1056 -0.66
v -32 -1056 -0.66
v -32 -1024 -0.66
v 0 -1024 -0.66
v -256 -1056 -0.66
v -288 -1056 -0.66
v -288 -1024 -0.66
v -256 -1024 -0.66
v -288 -1056 -0.66
v -320 -1056 -0.66
v -320 -1024 -0.66
v -288 -1024 -0.66
v -416 -1056 -0.66
v -448 -1056 -0.66
v -448 -1024 -0.66
v -416 -1024 -0.66
v -448 -1056 -0.66
v -480 -1056 -0.66
v -480 -1024 -0.66
v -448 -1024 -0.66
v -480 -1056 -0.66
v -512 -1056 -0.66
v -512 -1024 -0.66
v -480 -1024 -0.66
v -896 -1056 -0.66
v -928 -1056 -0.66
v -928 -1024 -0.66
v -896 -1024 -0.66
v -1568 -1056 -0.66
v -1600 -1056 -0.66
v -1600 -1024 -0.66
v -1568 -1024 -0.66
v 0 -1088 -0.68
v -32 -1088 -0.68
v -32 -1056 -0.68
v 0 -1056 -0.68
v -128 -1088 -0.68
v -160 -1088 -0.68
v -160 -1056 -0.68
v -128 -1056 -0.68
v -160 -1088 -0.68
v -192 -1088 -0.68
v -192 -1056 -0.68
v -160 -1056 -0.68
v -288 -1088 -0.68
v -320 -1088 -0.68
v -320 -1056 -0.68
v -288 -1056 -0.68
v -896 -1088 -0.68
v -928 -1088 -0.68
v -928 -1056 -0.68
v -896 -1056 -0.68
v -928 -1088 -0.68
v -960 -1088 -0.68
v -960 -1056 -0.68
v -928 -1056 -0.68
v -1568 -1088 -0.68
v -1600 -1088 -0.68
v -1600 -1056 -0.68
v -1568 -1056 -0.68
v 0 -1120 -0.7
v -32 -1120 -0.7
v -32 -1088 -0.7
v 0 -1088 -0.7
v -160 -1120 -0.7
v -192 -1120 -0.7
v -192 -1088 -0.7
v -160 -1088 -0.7
v -192 -1120 -0.7
v -224 -1120 -0.7
v -224 -1088 -0.7
v -192 -1088 -0.7
v -224 -1120 -0.7
v -256 -1120 -0.7
v -256 -1088 -0.7
v -224 -1088 -0.7
v -1472 -1120 -0.7
v -1504 -1120 -0.7
v -1504 -1088 -0.7
v -1472 -1088 -0.7
v -1472 -1152 -0.72
v -1504 -1152 -0.72
v -1504 -1120 -0.72
v -1472 -1120 -0.72
v -1536 -1152 -0.72
v -1568 -1152 -0.72
v -1568 -1120 -0.72
v -1536 -1120 -0.72
v -1280 -1184 -0.74
v -1312 -1184 -0.74
v -1312 -1152 -0.74
v -1280 -1152 -0.74
v -1312 -1184 -0.74
v -1344 -1184 -0.74
v -1344 -1152 -0.74
v -1312 -1152 -0.74
v -160 -1216 -0.76
v -192 -1216 -0.76
v -192 -1184 -0.76
v -160 -1184 -0.76
v -192 -1216 -0.76
v -224 -1216 -0.76
v -224 -1184 -0.76
v -192 -1184 -0.76
v -224 -1216 -0.76
v -256 -1216 -0.76
v -256 -1184 -0.76
v -224 -1184 -0.76
v -256 -1216 -0.76
v -288 -1216 -0.76
v -288 -1184 -0.76
v -256 -1184 -0.76
v -1568 -1216 -0.76
v -1600 -1216 -0.76
v -1600 -1184 -0.76
v -1568 -1184 -0.76
v -1280 -1248 -0.78
v -1312 -1248 -0.78
v -1312 -1216 -0.78
v -1280 -1216 -0.78
v -1408 -1248 -0.78
v -1440 -1248 -0.78
v -1440 -1216 -0.78
v -1408 -1216 -0.78
v -1440 -1248 -0.78
v -1472 -1248 -0.78
v -1472 -1216 -0.78
v -1440 -1216 -0.78
v -1568 -1248 -0.78
v -1600 -1248 -0.78
v -1600 -1216 -0.78
v -1568 -1216 -0.78
v -736 -1280 -0.8
v -768 -1280 -0.8
v -768 -1248 -0.8
v -736 -1248 -0.8
v -1280 -1280 -0.8
v -1312 -1280 -0.8
v -1312 -1248 -0.8
v -1280 -1248 -0.8
v -1312 -1280 -0.8
v -1344 -1280 -0.8
v -1344 -1248 -0.8
v -1312 -1248 -0.8
v -64 -1312 -0.82
v -96 -1312 -0.82
v -96 -1280 -0.82
v -64 -1280 -0.82
v -96 -1312 -0.82
v -128 -1312 -0.82
v -128 -1280 -0.82
v -96 -1280 -0.82
v -128 -1312 -0.82
v -160 -1312 -0.82
v -160 -1280 -0.82
v -128 -1280 -0.82
v -160 -1312 -0.82
v -192 -1312 -0.82
v -192 -1280 -0.82
v -160 -1280 -0.82
v -256 -1312 -0.82
v -288 -1312 -0.82
v -288 -1280 -0.82
v -256 -1280 -0.82
v -288 -1312 -0.82
v -320 -1312 -0.82
v -320 -1280 -0.82
v -288 -1280 -0.82
v -320 -1312 -0.82
v -352 -1312 -0.82
v -352 -1280 -0.82
v -320 -1280 -0.82
v -448 -1312 -0.82
v -480 -1312 -0.82
v -480 -1280 -0.82
v -448 -1280 -0.82
v -1216 -1312 -0.82
v -1248 -1312 -0.82
v -1248 -1280 -0.82
v -1216 -1280 -0.82
v -1248 -1312 -0.82
v -1280 -1312 -0.82
v -1280 -1280 -0.82
v -1248 -1280 -0.82
v -1280 -1312 -0.82
v -1312 -1312 -0.82
v -1312 -1280 -0.82
v -1280 -1280 -0.82
v -1312 -1312 -0.82
v -1344 -1312 -0.82
v -1344 -1280 -0.82
v -1312 -1280 -0.82
v -1344 -1312 -0.82
v -1376 -1312 -0.82
v -1376 -1280 -0.82
v -1344 -1280 -0.82
v -1376 -1312 -0.82
v -1408 -1312 -0.82
v -1408 -1280 -0.82
v -1376 -1280 -0.82
v -1408 -1312 -0.82
v -1440 -1312 -0.82
v -1440 -1280 -0.82
v -1408 -1280 -0.82
v -1536 -1312 -0.82
v -1568 -1312 -0.82
v -1568 -1280 -0.82
v -1536 -1280 -0.82
v -160 -1344 -0.84
v -192 -1344 -0.84
v -192 -1312 -0.84
v -160 -1312 -0.84
v -192 -1344 -0.84
v -224 -1344 -0.84
v -224 -1312 -0.84
v -192 -1312 -0.84
v -224 -1344 -0.84
v -256 -1344 -0.84
v -256 -1312 -0.84
v -224 -1312 -0.84
v -256 -1344 -0.84
v -288 -1344 -0.84
v -288 -1312 -0.84
v -256 -1312 -0.84
v -288 -1344 -0.84
v -320 -1344 -0.84
v -320 -1312 -0.84
v -288 -1312 -0.84
v -320 -1344 -0.84
v -352 -1344 -0.84
v -352 -1312 -0.84
v -320 -1312 -0.84
v -1248 -1344 -0.84
v -1280 -1344 -0.84
v -1280 -1312 -0.84
v -1248 -1312 -0.84
v -1280 -1344 -0.84
v -1312 -1344 -0.84
v -1312 -1312 -0.84
v -1280 -1312 -0.84
v -1312 -1344 -0.84
v -1344 -1344 -0.84
v -1344 -1312 -0.84
v -1312 -1312 -0.84
v -1344 -1344 -0.84
v -1376 -1344 -0.84
v -1376 -1312 -0.84
v -1344 -1312 -0.84
v -1376 -1344 -0.84
v -1408 -1344 -0.84
v -1408 -1312 -0.84
v -1376 -1312 -0.84
v -1408 -1344 -0.84
v -1440 -1344 -0.84
v -1440 -1312 -0.84
v -1408 -1312 -0.84
v -160 -1376 -0.86
v -192 -1376 -0.86
v -192 -1344 -0.86
v -160 -1344 -0.86
v -192 -1376 -0.86
v -224 -1376 -0.86
v -224 -1344 -0.86
v -192 -1344 -0.86
v -224 -1376 -0.86
v -256 -1376 -0.86
v -256 -1344 -0.86
v -224 -1344 -0.86
v -288 -1376 -0.86
v -320 -1376 -0.86
v -320 -1344 -0.86
v -288 -1344 -0.86
v -320 -1376 -0.86
v -352 -1376 -0.86
v -352 -1344 -0.86
v -320 -1344 -0.86
v -1248 -1376 -0.86
v -1280 -1376 -0.86
v -1280 -1344 -0.86
v -1248 -1344 -0.86
v -1280 -1376 -0.86
v -1312 -1376 -0.86
v -1312 -1344 -0.86
v -1280 -1344 -0.86
v -1312 -1376 -0.86
v -1344 -1376 -0.86
v -1344 -1344 -0.86
v -1312 -1344 -0.86
v -1376 -1376 -0.86
v -1408 -1376 -0.86
v -1408 -1344 -0.86
v -1376 -1344 -0.86
v -1408 -1376 -0.86
v -1440 -1376 -0.86
v -1440 -1344 -0.86
v -1408 -1344 -0.86
v -64 -1408 -0.88
v -96 -1408 -0.88
v -96 -1376 -0.88
v -64 -1376 -0.88
v -96 -1408 -0.88
v -128 -1408 -0.88
v -128 -1376 -0.88
v -96 -1376 -0.88
v -192 -1408 -0.88
v -224 -1408 -0.88
v -224 -1376 -0.88
v -192 -1376 -0.88
v -224 -1408 -0.88
v -256 -1408 -0.88
v -256 -1376 -0.88
v -224 -1376 -0.88
v -416 -1408 -0.88
v -448 -1408 -0.88
v -448 -1376 -0.88
v -416 -1376 -0.88
v -448 -1408 -0.88
v -480 -1408 -0.88
v -480 -1376 -0.88
v -448 -1376 -0.88
v -480 -1408 -0.88
v -512 -1408 -0.88
v -512 -1376 -0.88
v -480 -1376 -0.88
v -832 -1408 -0.88
v -864 -1408 -0.88
v -864 -1376 -0.88
v -832 -1376 -0.88
v -1024 -1408 -0.88
v -1056 -1408 -0.88
v -1056 -1376 -0.88
v -1024 -1376 -0.88
v -1248 -1408 -0.88
v -1280 -1408 -0.88
v -1280 -1376 -0.88
v -1248 -1376 -0.88
v -1280 -1408 -0.88
v -1312 -1408 -0.88
v -1312 -1376 -0.88
v -1280 -1376 -0.88
v -1312 -1408 -0.88
v -1344 -1408 -0.88
v -1344 -1376 -0.88
v -1312 -1376 -0.88
v -1472 -1408 -0.88
v -1504 -1408 -0.88
v -1504 -1376 -0.88
v -1472 -1376 -0.88
v -1504 -1408 -0.88
v -1536 -1408 -0.88
v -1536 -1376 -0.88
v -1504 -1376 -0.88
v -1536 -1408 -0.88
v -1568 -1408 -0.88
v -1568 -1376 -0.88
v -1536 -1376 -0.88
v -96 -1440 -0.9
v -128 -1440 -0.9
v -128 -1408 -0.9
v -96 -1408 -0.9
v -128 -1440 -0.9
v -160 -1440 -0.9
v -160 -1408 -0.9
v -128 -1408 -0.9
v -192 -1440 -0.9
v -224 -1440 -0.9
v -224 -1408 -0.9
v -192 -1408 -0.9
v -288 -1440 -0.9
v -320 -1440 -0.9
v -320 -1408 -0.9
v -288 -1408 -0.9
v -800 -1440 -0.9
v -832 -1440 -0.9
v -832 -1408 -0.9
v -800 -1408 -0.9
v -832 -1440 -0.9
v -864 -1440 -0.9
v -864 -1408 -0.9
v -832 -1408 -0.9
v -1024 -1440 -0.9
v -1056 -1440 -0.9
v -1056 -1408 -0.9
v -1024 -1408 -0.9
v -1312 -1440 -0.9
v -1344 -1440 -0.9
v -1344 -1408 -0.9
v -1312 -1408 -0.9
v -1376 -1440 -0.9
v -1408 -1440 -0.9
v -1408 -1408 -0.9
v -1376 -1408 -0.9
v -1440 -1440 -0.9
v -1472 -1440 -0.9
v -1472 -1408 -0.9
v -1440 -1408 -0.9
v -1472 -1440 -0.9
v -1504 -1440 -0.9
v -1504 -1408 -0.9
v -1472 -1408 -0.9
v -160 -1472 -0.92
v -192 -1472 -0.92
v -192 -1440 -0.92
v -160 -1440 -0.92
v -192 -1472 -0.92
v -224 -1472 -0.92
v -224 -1440 -0.92
v -192 -1440 -0.92
v -256 -1472 -0.92
v -288 -1472 -0.92
v -288 -1440 -0.92
v -256 -1440 -0.92
v -352 -1472 -0.92
v -384 -1472 -0.92
v -384 -1440 -0.92
v -352 -1440 -0.92
v -800 -1472 -0.92
v -832 -1472 -0.92
v -832 -1440 -0.92
v -800 -1440 -0.92
v -1280 -1472 -0.92
v -1312 -1472 -0.92
v -1312 -1440 -0.92
v -1280 -1440 -0.92
v -1312 -1472 -0.92
v -1344 -1472 -0.92
v -1344 -1440 -0.92
v -1312 -1440 -0.92
v -1376 -1472 -0.92
v -1408 -1472 -0.92
v -1408 -1440 -0.92
v -1376 -1440 -0.92
v -1440 -1472 -0.92
v -1472 -1472 -0.92
v -1472 -1440 -0.92
v -1440 -1440 -0.92
v -800 -1504 -0.94
v -832 -1504 -0.94
v -832 -1472 -0.94
v -800 -1472 -0.94

# Texture cooridinates (Count = 36)
vt 0.875 0.2275862
vt 1 0.2275862
vt 1 0.2496552
vt 0.875 0.2496552
vt 0 0.3158621
vt 0.125 0.3158621
vt 0.125 0.337931
vt 0 0.337931
vt 0.25 0.3158621
vt 0.25 0.337931
vt 0.375 0.3158621
vt 0.375 0.337931
vt 0.5 0.3158621
vt 0.5 0.337931
vt 0.625 0.3158621
vt 0.625 0.337931
vt 0.75 0.3158621
vt 0.75 0.337931
vt 0 0.2937931
vt 0.125 0.2937931
vt 0.25 0.2937931
vt 0.375 0.2937931
vt 0.5 0.2937931
vt 0.625 0.2937931
vt 0.75 0.2937931
vt 0.125 0.2717242
vt 0.25 0.2717242
vt 0.375 0.2717242
vt 0.5 0.2717242
vt 0.625 0.2717242
vt 0.75 0.2717242
vt 0 0.2717242
vt 0.75 0.1613793
vt 0.875 0.1613793
vt 0.875 0.1834483
vt 0.75 0.1834483

# Normal
vn 0 0 -1

# Mesh description
g TestMap_mesh_0003

# Faces
f 1/1/1 2/2/1 3/3/1 4/4/1
f 5/1/1 6/2/1 7/3/1 8/4/1
f 9/1/1 10/2/1 11/3/1 12/4/1
f 13/1/1 14/2/1 15/3/1 16/4/1
f 17/1/1 18/2/1 19/3/1 20/4/1
f 21/1/1 22/2/1 23/3/1 24/4/1
f 25/1/1 26/2/1 27/3/1 28/4/1
f 29/1/1 30/2/1 31/3/1 32/4/1
f 33/1/1 34/2/1 35/3/1 36/4/1
f 37/1/1 38/2/1 39/3/1 40/4/1
f 41/1/1 42/2/1 43/3/1 44/4/1
f 45/1/1 46/2/1 47/3/1 48/4/1
f 49/1/1 50/2/1 51/3/1 52/4/1
f 53/1/1 54/2/1 55/3/1 56/4/1
f 57/1/1 58/2/1 59/3/1 60/4/1
f 61/1/1 62/2/1 63/3/1 64/4/1
f 65/1/1 66/2/1 67/3/1 68/4/1
f 69/1/1 70/2/1 71/3/1 72/4/1
f 73/1/1 74/2/1 75/3/1 76/4/1
f 77/1/1 78/2/1 79/3/1 80/4/1
f 81/1/1 82/2/1 83/3/1 84/4/1
f 85/1/1 86/2/1 87/3/1 88/4/1
f 89/1/1 90/2/1 91/3/1 92/4/1
f 93/1/1 94/2/1 95/3/1 96/4/1
f 97/1/1 98/2/1 99/3/1 100/4/1
f 101/1/1 102/2/1 103/3/1 104/4/1
f 105/1/1 106/2/1 107/3/1 108/4/1
f 109/1/1 110/2/1 111/3/1 112/4/1
f 113/1/1 114/2/1 115/3/1 116/4/1
f 117/1/1 118/2/1 119/3/1 120/4/1
f 121/1/1 122/2/1 123/3/1 124/4/1
f 125/1/1 126/2/1 127/3/1 128/4/1
f 129/1/1 130/2/1 131/3/1 132/4/1
f 133/1/1 134/2/1 135/3/1 136/4/1
f 137/1/1 138/2/1 139/3/1 140/4/1
f 141/1/1 142/2/1 143/3/1 144/4/1
f 145/1/1 146/2/1 147/3/1 148/4/1
f 149/1/1 150/2/1 151/3/1 152/4/1
f 153/1/1 154/2/1 155/3/1 156/4/1
f 157/1/1 158/2/1 159/3/1 160/4/1
f 161/1/1 162/2/1 163/3/1 164/4/1
f 165/1/1 166/2/1 167/3/1 168/4/1
f 169/1/1 170/2/1 171/3/1 172/4/1
f 173/1/1 174/2/1 175/3/1 176/4/1
f 177/1/1 178/2/1 179/3/1 180/4/1
f 181/1/1 182/2/1 183/3/1 184/4/1
f 185/1/1 186/2/1 187/3/1 188/4/1
f 189/1/1 190/2/1 191/3/1 192/4/1
f 193/1/1 194/2/1 195/3/1 196/4/1
f 197/1/1 198/2/1 199/3/1 200/4/1
f 201/1/1 202/2/1 203/3/1 204/4/1
f 205/1/1 206/2/1 207/3/1 208/4/1
f 209/1/1 210/2/1 211/3/1 212/4/1
f 213/5/1 214/6/1 215/7/1 216/8/1
f 217/6/1 218/9/1 219/10/1 220/7/1
f 221/9/1 222/11/1 223/12/1 224/10/1
f 225/1/1 226/2/1 227/3/1 228/4/1
f 229/1/1 230/2/1 231/3/1 232/4/1
f 233/1/1 234/2/1 235/3/1 236/4/1
f 237/1/1 238/2/1 239/3/1 240/4/1
f 241/1/1 242/2/1 243/3/1 244/4/1
f 245/11/1 246/13/1 247/14/1 248/12/1
f 249/13/1 250/15/1 251/16/1 252/14/1
f 253/15/1 254/17/1 255/18/1 256/16/1
f 257/1/1 258/2/1 259/3/1 260/4/1
f 261/11/1 262/13/1 263/14/1 264/12/1
f 265/13/1 266/15/1 267/16/1 268/14/1
f 269/15/1 270/17/1 271/18/1 272/16/1
f 273/19/1 274/20/1 275/6/1 276/5/1
f 277/20/1 278/21/1 279/9/1 280/6/1
f 281/21/1 282/22/1 283/11/1 284/9/1
f 285/5/1 286/6/1 287/7/1 288/8/1
f 289/6/1 290/9/1 291/10/1 292/7/1
f 293/9/1 294/11/1 295/12/1 296/10/1
f 297/22/1 298/23/1 299/13/1 300/11/1
f 301/23/1 302/24/1 303/15/1 304/13/1
f 305/24/1 306/25/1 307/17/1 308/15/1
f 309/22/1 310/23/1 311/13/1 312/11/1
f 313/23/1 314/24/1 315/15/1 316/13/1
f 317/24/1 318/25/1 319/17/1 320/15/1
f 321/26/1 322/27/1 323/21/1 324/20/1
f 325/27/1 326/28/1 327/22/1 328/21/1
f 329/19/1 330/20/1 331/6/1 332/5/1
f 333/20/1 334/21/1 335/9/1 336/6/1
f 337/21/1 338/22/1 339/11/1 340/9/1
f 341/29/1 342/30/1 343/24/1 344/23/1
f 345/30/1 346/31/1 347/25/1 348/24/1
f 349/1/1 350/2/1 351/3/1 352/4/1
f 353/1/1 354/2/1 355/3/1 356/4/1
f 357/29/1 358/30/1 359/24/1 360/23/1
f 361/30/1 362/31/1 363/25/1 364/24/1
f 365/1/1 366/2/1 367/3/1 368/4/1
f 369/1/1 370/2/1 371/3/1 372/4/1
f 373/1/1 374/2/1 375/3/1 376/4/1
f 377/1/1 378/2/1 379/3/1 380/4/1
f 381/1/1 382/2/1 383/3/1 384/4/1
f 385/32/1 386/26/1 387/20/1 388/19/1
f 389/26/1 390/27/1 391/21/1 392/20/1
f 393/27/1 394/28/1 395/22/1 396/21/1
f 397/1/1 398/2/1 399/3/1 400/4/1
f 401/1/1 402/2/1 403/3/1 404/4/1
f 405/1/1 406/2/1 407/3/1 408/4/1
f 409/1/1 410/2/1 411/3/1 412/4/1
f 413/1/1 414/2/1 415/3/1 416/4/1
f 417/33/1 418/34/1 419/35/1 420/36/1
f 421/33/1 422/34/1 423/35/1 424/36/1
f 425/1/1 426/2/1 427/3/1 428/4/1
f 429/1/1 430/2/1 431/3/1 432/4/1
f 433/1/1 434/2/1 435/3/1 436/4/1
f 437/33/1 438/34/1 439/35/1 440/36/1
f 441/33/1 442/34/1 443/35/1 444/36/1
f 445/1/1 446/2/1 447/3/1 448/4/1
f 449/1/1 450/2/1 451/3/1 452/4/1
f 453/1/1 454/2/1 455/3/1 456/4/1
f 457/33/1 458/34/1 459/35/1 460/36/1
f 461/33/1 462/34/1 463/35/1 464/36/1
f 465/1/1 466/2/1 467/3/1 468/4/1
f 469/1/1 470/2/1 471/3/1 472/4/1
f 473/33/1 474/34/1 475/35/1 476/36/1
f 477/33/1 478/34/1 479/35/1 480/36/1
f 481/33/1 482/34/1 483/35/1 484/36/1
f 485/1/1 486/2/1 487/3/1 488/4/1
f 489/1/1 490/2/1 491/3/1 492/4/1

