# Tiled2Unity generated file. Do not modify by hand.
# Wavefront file for 'Bedroom_mesh_0003.obj'

# Vertices (Count = 184)
v 0 -16 -0.1
v -16 -16 -0.1
v -16 0 -0.1
v 0 0 -0.1
v -16 -16 -0.1
v -32 -16 -0.1
v -32 0 -0.1
v -16 0 -0.1
v -32 -16 -0.1
v -48 -16 -0.1
v -48 0 -0.1
v -32 0 -0.1
v -48 -16 -0.1
v -64 -16 -0.1
v -64 0 -0.1
v -48 0 -0.1
v -64 -16 -0.1
v -80 -16 -0.1
v -80 0 -0.1
v -64 0 -0.1
v -80 -16 -0.1
v -96 -16 -0.1
v -96 0 -0.1
v -80 0 -0.1
v -96 -16 -0.1
v -112 -16 -0.1
v -112 0 -0.1
v -96 0 -0.1
v -112 -16 -0.1
v -128 -16 -0.1
v -128 0 -0.1
v -112 0 -0.1
v -128 -16 -0.1
v -144 -16 -0.1
v -144 0 -0.1
v -128 0 -0.1
v -144 -16 -0.1
v -160 -16 -0.1
v -160 0 -0.1
v -144 0 -0.1
v -160 -16 -0.1
v -176 -16 -0.1
v -176 0 -0.1
v -160 0 -0.1
v 0 -32 -0.2
v -16 -32 -0.2
v -16 -16 -0.2
v 0 -16 -0.2
v -16 -32 -0.2
v -32 -32 -0.2
v -32 -16 -0.2
v -16 -16 -0.2
v -32 -32 -0.2
v -48 -32 -0.2
v -48 -16 -0.2
v -32 -16 -0.2
v -48 -32 -0.2
v -64 -32 -0.2
v -64 -16 -0.2
v -48 -16 -0.2
v -64 -32 -0.2
v -80 -32 -0.2
v -80 -16 -0.2
v -64 -16 -0.2
v -80 -32 -0.2
v -96 -32 -0.2
v -96 -16 -0.2
v -80 -16 -0.2
v -96 -32 -0.2
v -112 -32 -0.2
v -112 -16 -0.2
v -96 -16 -0.2
v -112 -32 -0.2
v -128 -32 -0.2
v -128 -16 -0.2
v -112 -16 -0.2
v -128 -32 -0.2
v -144 -32 -0.2
v -144 -16 -0.2
v -128 -16 -0.2
v -144 -32 -0.2
v -160 -32 -0.2
v -160 -16 -0.2
v -144 -16 -0.2
v -160 -32 -0.2
v -176 -32 -0.2
v -176 -16 -0.2
v -160 -16 -0.2
v 0 -48 -0.3
v -16 -48 -0.3
v -16 -32 -0.3
v 0 -32 -0.3
v -16 -48 -0.3
v -32 -48 -0.3
v -32 -32 -0.3
v -16 -32 -0.3
v -32 -48 -0.3
v -48 -48 -0.3
v -48 -32 -0.3
v -32 -32 -0.3
v -48 -48 -0.3
v -64 -48 -0.3
v -64 -32 -0.3
v -48 -32 -0.3
v -64 -48 -0.3
v -80 -48 -0.3
v -80 -32 -0.3
v -64 -32 -0.3
v -80 -48 -0.3
v -96 -48 -0.3
v -96 -32 -0.3
v -80 -32 -0.3
v -96 -48 -0.3
v -112 -48 -0.3
v -112 -32 -0.3
v -96 -32 -0.3
v -112 -48 -0.3
v -128 -48 -0.3
v -128 -32 -0.3
v -112 -32 -0.3
v -128 -48 -0.3
v -144 -48 -0.3
v -144 -32 -0.3
v -128 -32 -0.3
v -144 -48 -0.3
v -160 -48 -0.3
v -160 -32 -0.3
v -144 -32 -0.3
v -160 -48 -0.3
v -176 -48 -0.3
v -176 -32 -0.3
v -160 -32 -0.3
v 0 -64 -0.4
v -16 -64 -0.4
v -16 -48 -0.4
v 0 -48 -0.4
v -160 -64 -0.4
v -176 -64 -0.4
v -176 -48 -0.4
v -160 -48 -0.4
v 0 -80 -0.5
v -16 -80 -0.5
v -16 -64 -0.5
v 0 -64 -0.5
v -160 -80 -0.5
v -176 -80 -0.5
v -176 -64 -0.5
v -160 -64 -0.5
v 0 -96 -0.6
v -16 -96 -0.6
v -16 -80 -0.6
v 0 -80 -0.6
v -160 -96 -0.6
v -176 -96 -0.6
v -176 -80 -0.6
v -160 -80 -0.6
v 0 -112 -0.7
v -16 -112 -0.7
v -16 -96 -0.7
v 0 -96 -0.7
v 0 -128 -0.8
v -16 -128 -0.8
v -16 -112 -0.8
v 0 -112 -0.8
v -160 -128 -0.8
v -176 -128 -0.8
v -176 -112 -0.8
v -160 -112 -0.8
v 0 -144 -0.9
v -16 -144 -0.9
v -16 -128 -0.9
v 0 -128 -0.9
v -160 -144 -0.9
v -176 -144 -0.9
v -176 -128 -0.9
v -160 -128 -0.9
v 0 -160 -1
v -16 -160 -1
v -16 -144 -1
v 0 -144 -1
v -160 -160 -1
v -176 -160 -1
v -176 -144 -1
v -160 -144 -1

# Texture cooridinates (Count = 36)
vt 0.5268595 0.5817491
vt 0.5433884 0.5817491
vt 0.5433884 0.6121673
vt 0.5268595 0.6121673
vt 0.4917355 0.5817491
vt 0.5082645 0.5817491
vt 0.5082645 0.6121673
vt 0.4917355 0.6121673
vt 0.5444215 0.5817491
vt 0.5609504 0.5817491
vt 0.5609504 0.6121673
vt 0.5444215 0.6121673
vt 0.5092975 0.5494297
vt 0.5258265 0.5494297
vt 0.5258265 0.5798479
vt 0.5092975 0.5798479
vt 0.5619835 0.4847909
vt 0.5785124 0.4847909
vt 0.5785124 0.5152091
vt 0.5619835 0.5152091
vt 0.4741735 0.5171102
vt 0.4907025 0.5171102
vt 0.4907025 0.5475285
vt 0.4741735 0.5475285
vt 0.5444215 0.4847909
vt 0.5609504 0.4847909
vt 0.5609504 0.5152091
vt 0.5444215 0.5152091
vt 0.5795454 0.4847909
vt 0.5960744 0.4847909
vt 0.5960744 0.5152091
vt 0.5795454 0.5152091
vt 0.4741735 0.5494297
vt 0.4907025 0.5494297
vt 0.4907025 0.5798479
vt 0.4741735 0.5798479

# Normal
vn 0 0 -1

# Mesh description
g Bedroom_mesh_0003

# Faces
f 1/1/1 2/2/1 3/3/1 4/4/1
f 5/5/1 6/6/1 7/7/1 8/8/1
f 9/5/1 10/6/1 11/7/1 12/8/1
f 13/5/1 14/6/1 15/7/1 16/8/1
f 17/5/1 18/6/1 19/7/1 20/8/1
f 21/5/1 22/6/1 23/7/1 24/8/1
f 25/5/1 26/6/1 27/7/1 28/8/1
f 29/5/1 30/6/1 31/7/1 32/8/1
f 33/5/1 34/6/1 35/7/1 36/8/1
f 37/5/1 38/6/1 39/7/1 40/8/1
f 41/9/1 42/10/1 43/11/1 44/12/1
f 45/13/1 46/14/1 47/15/1 48/16/1
f 49/17/1 50/18/1 51/19/1 52/20/1
f 53/17/1 54/18/1 55/19/1 56/20/1
f 57/17/1 58/18/1 59/19/1 60/20/1
f 61/17/1 62/18/1 63/19/1 64/20/1
f 65/17/1 66/18/1 67/19/1 68/20/1
f 69/17/1 70/18/1 71/19/1 72/20/1
f 73/17/1 74/18/1 75/19/1 76/20/1
f 77/17/1 78/18/1 79/19/1 80/20/1
f 81/17/1 82/18/1 83/19/1 84/20/1
f 85/13/1 86/14/1 87/15/1 88/16/1
f 89/13/1 90/14/1 91/15/1 92/16/1
f 93/17/1 94/18/1 95/19/1 96/20/1
f 97/17/1 98/18/1 99/19/1 100/20/1
f 101/17/1 102/18/1 103/19/1 104/20/1
f 105/17/1 106/18/1 107/19/1 108/20/1
f 109/17/1 110/18/1 111/19/1 112/20/1
f 113/17/1 114/18/1 115/19/1 116/20/1
f 117/17/1 118/18/1 119/19/1 120/20/1
f 121/17/1 122/18/1 123/19/1 124/20/1
f 125/17/1 126/18/1 127/19/1 128/20/1
f 129/21/1 130/22/1 131/23/1 132/24/1
f 133/13/1 134/14/1 135/15/1 136/16/1
f 137/25/1 138/26/1 139/27/1 140/28/1
f 141/13/1 142/14/1 143/15/1 144/16/1
f 145/25/1 146/26/1 147/27/1 148/28/1
f 149/21/1 150/22/1 151/23/1 152/24/1
f 153/25/1 154/26/1 155/27/1 156/28/1
f 157/29/1 158/30/1 159/31/1 160/32/1
f 161/29/1 162/30/1 163/31/1 164/32/1
f 165/33/1 166/34/1 167/35/1 168/36/1
f 169/29/1 170/30/1 171/31/1 172/32/1
f 173/21/1 174/22/1 175/23/1 176/24/1
f 177/29/1 178/30/1 179/31/1 180/32/1
f 181/25/1 182/26/1 183/27/1 184/28/1

