# Tiled2Unity generated file. Do not modify by hand.
# Wavefront file for 'Bedroom_mesh_0005.obj'

# Vertices (Count = 20)
v -48 -48 -0.3
v -64 -48 -0.3
v -64 -32 -0.3
v -48 -32 -0.3
v -64 -48 -0.3
v -80 -48 -0.3
v -80 -32 -0.3
v -64 -32 -0.3
v -80 -48 -0.3
v -96 -48 -0.3
v -96 -32 -0.3
v -80 -32 -0.3
v -96 -48 -0.3
v -112 -48 -0.3
v -112 -32 -0.3
v -96 -32 -0.3
v -112 -48 -0.3
v -128 -48 -0.3
v -128 -32 -0.3
v -112 -32 -0.3

# Texture cooridinates (Count = 16)
vt 0.8078513 0.5817491
vt 0.8243802 0.5817491
vt 0.8243802 0.6121673
vt 0.8078513 0.6121673
vt 0.7551653 0.5817491
vt 0.7716942 0.5817491
vt 0.7716942 0.6121673
vt 0.7551653 0.6121673
vt 0.8780992 0.4847909
vt 0.8946281 0.4847909
vt 0.8946281 0.5152091
vt 0.8780992 0.5152091
vt 0.7376033 0.5817491
vt 0.7541322 0.5817491
vt 0.7541322 0.6121673
vt 0.7376033 0.6121673

# Normal
vn 0 0 -1

# Mesh description
g Bedroom_mesh_0005

# Faces
f 1/1/1 2/2/1 3/3/1 4/4/1
f 5/5/1 6/6/1 7/7/1 8/8/1
f 9/9/1 10/10/1 11/11/1 12/12/1
f 13/5/1 14/6/1 15/7/1 16/8/1
f 17/13/1 18/14/1 19/15/1 20/16/1

